<?xml version="1.0" encoding="UTF-8"?>
<svg xmlns="http://www.w3.org/2000/svg" xmlns:xlink="http://www.w3.org/1999/xlink" width="72px" height="72px" viewBox="0 0 72 72" version="1.1">
<g id="surface1">
<path style=" stroke:none;fill-rule:evenodd;fill:rgb(0%,49.411765%,73.333335%);fill-opacity:1;" d="M 36 72 C 55.882812 72 72 55.882812 72 36 C 72 16.117188 55.882812 0 36 0 C 16.117188 0 0 16.117188 0 36 C 0 55.882812 16.117188 72 36 72 Z M 36 72 "/>
<path style=" stroke:none;fill-rule:evenodd;fill:rgb(100%,100%,100%);fill-opacity:1;" d="M 59 57 L 49.960938 57 L 49.960938 41.601562 C 49.960938 37.378906 48.355469 35.019531 45.015625 35.019531 C 41.378906 35.019531 39.480469 37.476562 39.480469 41.601562 L 39.480469 57 L 30.765625 57 L 30.765625 27.667969 L 39.480469 27.667969 L 39.480469 31.617188 C 39.480469 31.617188 42.097656 26.769531 48.324219 26.769531 C 54.546875 26.769531 59 30.570312 59 38.429688 Z M 20.371094 23.824219 C 17.40625 23.824219 15 21.402344 15 18.414062 C 15 15.421875 17.40625 13 20.371094 13 C 23.339844 13 25.742188 15.421875 25.742188 18.414062 C 25.742188 21.402344 23.339844 23.824219 20.371094 23.824219 Z M 15.875 57 L 24.957031 57 L 24.957031 27.667969 L 15.875 27.667969 Z M 15.875 57 "/>
</g>
</svg>
