<?xml version="1.0" encoding="UTF-8"?>
<svg xmlns="http://www.w3.org/2000/svg" xmlns:xlink="http://www.w3.org/1999/xlink" width="72px" height="72px" viewBox="0 0 72 72" version="1.1">
<g id="surface1">
<path style=" stroke:none;fill-rule:nonzero;fill:rgb(65.098041%,80.784315%,22.352941%);fill-opacity:1;" d="M 72 36 C 72 55.882812 55.882812 72 36 72 C 16.117188 72 0 55.882812 0 36 C 0 16.117188 16.117188 0 36 0 C 55.882812 0 72 16.117188 72 36 Z M 72 36 "/>
<path style=" stroke:none;fill-rule:nonzero;fill:rgb(100%,100%,100%);fill-opacity:1;" d="M 24.273438 52.367188 L 19.941406 52.367188 L 19.941406 22.246094 L 24.273438 22.246094 Z M 24.273438 52.367188 "/>
<path style=" stroke:none;fill-rule:nonzero;fill:rgb(100%,100%,100%);fill-opacity:1;" d="M 30.628906 22.246094 L 42.328125 22.246094 C 53.464844 22.246094 58.359375 30.207031 58.359375 37.320312 C 58.359375 45.054688 52.3125 52.398438 42.382812 52.398438 L 30.628906 52.398438 Z M 34.960938 48.488281 L 41.851562 48.488281 C 51.664062 48.488281 53.914062 41.035156 53.914062 37.320312 C 53.914062 31.273438 50.0625 26.15625 41.625 26.15625 L 34.960938 26.15625 Z M 34.960938 48.488281 "/>
<path style=" stroke:none;fill-rule:nonzero;fill:rgb(100%,100%,100%);fill-opacity:1;" d="M 24.945312 15.976562 C 24.945312 17.523438 23.679688 18.816406 22.105469 18.816406 C 20.53125 18.816406 19.265625 17.523438 19.265625 15.976562 C 19.265625 14.398438 20.53125 13.132812 22.105469 13.132812 C 23.679688 13.132812 24.945312 14.429688 24.945312 15.976562 Z M 24.945312 15.976562 "/>
</g>
</svg>
